<?xml version="1.0" encoding="utf-8"?>
<!-- Generator: Adobe Illustrator 26.0.2, SVG Export Plug-In . SVG Version: 6.00 Build 0)  -->
<svg version="1.1" id="레이어_1" xmlns="http://www.w3.org/2000/svg" xmlns:xlink="http://www.w3.org/1999/xlink" x="0px"
	 y="0px" viewBox="0 0 354 103" style="enable-background:new 0 0 354 103;" xml:space="preserve">
<g>
	<g>
		<path d="M110,73.1c-9.5,0-16.7-6.5-16.8-18.2c0-11.6,7.3-18.1,16.8-18.1c9.5,0,16.8,6.4,16.9,18.1C126.8,66.6,119.5,73.1,110,73.1
			z M110,65.9c5.2,0,8.3-3.8,8.4-10.9c-0.1-7-3.2-10.8-8.4-10.8c-5.1,0-8.2,3.8-8.3,10.8C101.8,62,104.9,65.8,110,65.9z"/>
		<path d="M139.9,72.6h-8.3V46.2h7.9V51h0.3c1.1-3.2,4.1-5.1,8-5.2c5.6,0,9.2,4,9.2,10v16.9h-8.2V57.4c0-3-1.6-4.8-4.4-4.8
			c-2.7,0-4.5,1.8-4.5,4.9V72.6z"/>
		<path d="M161.2,59.5c0-9.3,5-13.6,10.6-13.7c4.2,0,6.5,2.5,7.5,4.9h0.2V37.3h8.2v35.3h-8.1v-4.3h-0.3c-1,2.4-3.4,4.7-7.5,4.7
			C165.9,73,161.2,68.4,161.2,59.5z M174.6,66.5c3.1,0,5-2.8,5-7.2s-1.8-7.1-5-7.1c-3.3,0-5,2.8-5,7.1
			C169.6,63.8,171.4,66.6,174.6,66.5z"/>
		<path d="M191.9,59.5c0-8.1,5.1-13.6,13.1-13.7c7.4,0,12.8,4.7,12.8,13.6v2.1H200v0.1c0,3.4,2.1,5.6,5.4,5.6c2.3,0,3.9-0.9,4.6-2.5
			h7.7c-1,5.1-5.5,8.5-12.4,8.5C197,73.1,191.9,67.9,191.9,59.5z M210.1,56.6c0-2.8-2-4.8-4.9-4.8c-2.9,0-5,2-5.2,4.8H210.1z"/>
		<path d="M222,37.3h8.2v13.4h0.2c1-2.3,3.2-4.8,7.5-4.9c5.6,0,10.6,4.3,10.6,13.7c0,8.9-4.7,13.6-10.6,13.6c-4.1,0-6.4-2.3-7.5-4.7
			h-0.3v4.3H222V37.3z M235,66.5c3.2,0,5-2.8,5-7.2c0-4.3-1.7-7.1-5-7.1c-3.1,0-5,2.7-5,7.1S231.9,66.6,235,66.5z"/>
		<path d="M261.3,57c2-0.1,5.3-0.2,6.4-0.2v-2.1c0-1.8-1.4-2.9-3.6-2.9c-2.2,0-3.6,0.9-3.9,2.7h-7.7c0.3-4.7,4.3-8.5,11.7-8.6
			c6.6,0,11.7,3.1,11.7,8.9v18h-7.7v-3.7H268c-1.4,2.7-4,4.1-7.8,4.2c-5-0.1-8.7-2.6-8.7-7.9C251.6,59.4,256.1,57.3,261.3,57z
			 M262.8,67.6c2.7,0,4.9-1.8,4.9-4.4v-1.7c-1,0-3.7,0.2-5,0.3c-2,0.2-3.4,1.3-3.4,3.1C259.3,66.7,260.8,67.6,262.8,67.6z"/>
		<path d="M295.6,52.3h-4.8v12.1c0,1.6,0.8,2.1,2.2,2.2c0.7,0,2,0,3-0.1v6.3c-0.8,0.1-2.2,0.2-4.1,0.3c-5.8,0-9.3-2.4-9.3-7.8v-13
			h-3.5v-6.1h3.5v-6.4h8.2v6.4h4.8V52.3z"/>
		<path d="M298.5,59.5c0-8.1,5.1-13.6,13.1-13.7c7.4,0,12.8,4.7,12.8,13.6v2.1h-17.8v0.1c0,3.4,2.1,5.6,5.4,5.6
			c2.3,0,3.9-0.9,4.6-2.5h7.7c-1,5.1-5.5,8.5-12.4,8.5C303.6,73.1,298.5,67.9,298.5,59.5z M316.7,56.6c0-2.8-2-4.8-4.9-4.8
			c-2.9,0-5,2-5.2,4.8H316.7z"/>
	</g>
	<path d="M36,77.1l11,4.7c6.7,2.9,14.4-0.2,17.3-6.9l16-37.1c2.9-6.7-0.2-14.4-6.9-17.3l-11-4.7c-6.7-2.9-14.4,0.2-17.3,6.9
		l-16,37.1C26.2,66.4,29.3,74.2,36,77.1z"/>
</g>
<g>
</g>
<g>
</g>
<g>
</g>
<g>
</g>
<g>
</g>
<g>
</g>
<g>
</g>
<g>
</g>
<g>
</g>
<g>
</g>
<g>
</g>
</svg>
